<svg width="601" height="255" viewBox="0 0 601 255" fill="none" xmlns="http://www.w3.org/2000/svg">
<path d="M94.0683 115.617C87.9959 106.692 80.1624 100.572 68.939 99.8477C66.4754 97.4864 64.0017 95.2322 60.2401 95.2169C53.4195 95.1914 47.4897 100.664 45.8711 108.604C45.7286 108.737 45.5911 108.87 45.4486 109.002L45.469 108.951C38.5109 114.475 33.8739 121.676 30.6316 129.81C24.7221 144.626 24.7781 159.706 28.8807 174.93C29.2013 176.123 29.8987 177.266 29.6289 178.622C28.6109 178.582 28.4735 177.694 28.1121 177.103C22.7523 168.336 19.0926 158.926 17.4994 148.747C17.4129 148.211 17.6572 147.512 16.9141 147.211V131.412C18.0033 129.361 17.8506 127.031 18.4207 124.853C24.091 103.173 36.4851 87.0314 57.6697 78.7949C70.8121 73.6847 83.5218 74.8526 94.389 84.8537C100.146 90.1475 103.495 96.9867 106.009 104.275C101.474 107.477 97.5397 111.313 94.0632 115.622L94.0683 115.617Z" fill="#02AEEE"/>
<path d="M82.1986 32.0127C87.5482 33.7671 91.834 36.72 94.3179 42.0189C100.797 55.8297 89.7064 74.6385 74.4822 75.5463C64.1597 76.1634 55.9393 68.5389 55.6746 58.0992C55.3743 46.3743 61.803 36.9291 72.8585 32.8236C73.3064 32.6553 73.8917 32.6349 74.0394 32.0076H82.1986V32.0127Z" fill="#02AEEE"/>
<path d="M94.0684 115.617C97.5449 111.302 101.479 107.472 106.015 104.269C111.507 100.934 117.365 98.5676 124.105 97.6292C109.501 94.5794 104.045 77.6015 107.781 67.0139C111.008 57.8747 120.017 54.8096 128.095 60.2054C136.606 65.8919 140.652 79.0754 136.809 88.5665C135.211 92.5139 132.554 95.4209 127.805 97.1549C131.332 97.4201 134.137 97.6853 136.901 98.2667C150.349 101.107 160.666 113.021 161.852 126.72C162.493 134.125 161.058 141.04 158.131 147.752C156.426 147.375 154.721 146.997 153.011 146.62C154.461 141.714 155.265 136.782 154.736 131.59C153.428 118.743 142.429 108.059 129.53 107.406C113.492 106.595 98.7767 116.142 92.9842 131.131C88.3473 143.126 90.5461 155.769 99.0363 163.654C108.208 172.176 118.979 173.125 130.375 169.177C136.209 167.158 141.38 163.95 145.192 158.901C146.933 158.171 148.75 158.324 150.562 158.431C146.969 163.358 142.037 166.632 136.621 169.101C123.891 174.899 111.227 175.19 99.3977 166.964C87.5329 158.712 83.1758 143.728 87.6296 128.811C89.0548 124.042 91.4063 119.763 94.0684 115.617Z" fill="#A7CE3E"/>
<path d="M336.454 181.387C337.299 181.351 338.149 181.285 338.994 181.285C382.58 181.285 426.17 181.3 469.756 181.229C472.047 181.229 472.988 181.739 472.688 184.136C472.418 186.308 473.574 189.179 472.265 190.536C470.84 192.02 467.934 191.015 465.684 191.015C423.712 191.046 381.735 191.041 339.763 191.036C338.658 191.036 337.559 190.985 336.454 190.954C336.454 187.762 336.454 184.569 336.454 181.376V181.387Z" fill="#ED4044"/>
<path d="M466.366 156.657C462.569 160.589 458.757 164.016 453.748 165.857C449.106 167.566 444.332 168.05 439.486 166.959C430.578 164.954 426.262 157.228 428.751 147.446C431.678 135.94 439.532 128.923 450.256 124.822C460.33 120.977 470.677 121.329 481.107 123.165C482.914 123.481 482.491 124.302 482.201 125.455C479.519 136.134 476.862 146.819 474.235 157.508C473.548 160.308 473.055 163.144 472.876 166.03C472.841 166.581 473.019 167.173 472.118 167.351C467.659 168.218 464.02 164.307 465.318 159.987C465.654 158.875 466.02 157.768 466.371 156.662L466.366 156.657ZM448.612 161.191C449.177 161.089 450.465 160.992 451.661 160.609C459.541 158.105 464.493 152.5 467.191 144.988C468.926 140.148 469.894 135.038 471.232 130.055C471.548 128.882 471.232 128.438 469.965 128.26C466.743 127.806 463.557 127.872 460.345 128.352C449.198 130.009 439.888 139.184 438.392 150.047C437.47 156.738 441.323 161.257 448.612 161.196V161.191Z" fill="#046EB7"/>
<path d="M372.094 157.106C366.841 163.695 360.209 167.586 351.587 167.698C338.964 167.862 332.168 159.299 335.472 147.12C338.363 136.476 345.652 129.703 355.521 125.562C366.002 121.161 376.889 121.554 387.843 123.4C389.431 123.67 389.09 124.481 388.82 125.567C385.965 136.996 383.124 148.425 380.355 159.875C379.882 161.844 379.684 163.889 379.505 165.913C379.414 166.974 379.215 167.438 378.009 167.26C376.487 167.035 374.95 166.898 373.652 166.005C371.799 164.735 370.863 163.083 371.677 160.773C372.043 159.737 372.313 158.666 372.629 157.611C372.888 157.259 373.031 156.891 372.761 156.478C372.542 156.687 372.318 156.897 372.099 157.106H372.094ZM371.814 128.275C370.007 128.194 367.824 128.393 365.65 128.847C355.17 131.024 346.614 139.613 345.056 149.568C343.758 157.866 349.174 163.073 357.282 161.068C365.869 158.942 370.939 152.908 373.891 144.968C375.184 141.495 375.866 137.797 376.818 134.202C377.866 130.254 376.199 128.279 371.814 128.275Z" fill="#046EB7"/>
<path d="M208.939 107.018C214.375 107.018 219.811 107.069 225.242 106.988C226.953 106.962 227.248 107.442 226.775 109.043C225.884 112.042 224.632 113.143 221.588 113.149C215.556 113.154 209.53 113.138 203.498 113.154C197.197 113.169 194.188 115.515 192.616 121.615C191.374 126.454 190.233 131.32 188.885 136.129C188.304 138.2 188.971 138.521 190.88 138.501C198.861 138.409 206.847 138.547 214.828 138.404C217.109 138.363 217.124 139.164 216.589 140.893C215.663 143.881 214.05 145.171 210.858 145.177C203.467 145.187 196.082 145.222 188.691 145.146C187.139 145.131 186.523 145.569 186.146 147.13C183.601 157.753 180.934 168.351 178.302 178.949C177.529 182.055 176.287 182.682 172.546 181.897C169.99 181.361 168.367 178.949 168.993 176.348C170.179 171.406 171.492 166.5 172.729 161.568C176.719 145.717 180.705 129.866 184.675 114.01C185.81 109.466 188.712 107.069 193.389 107.034C198.571 106.993 203.752 107.023 208.929 107.023L208.939 107.018Z" fill="#046EB7"/>
<path d="M253.497 121.757C256.561 121.961 259.356 122.16 262.074 122.895C273.532 125.985 278.912 136.318 274.646 147.762C270.401 159.161 261.621 165.102 249.878 167.091C245.984 167.749 242.086 167.683 238.227 166.938C225.054 164.393 218.855 153.484 223.751 140.979C228.119 129.836 236.919 124.144 248.443 122.257C250.194 121.972 251.986 121.9 253.497 121.757ZM245.435 161.4C254.673 161.425 263.626 153.439 265.296 143.687C267.077 133.278 260.308 126.49 249.853 128.188C240.864 129.652 233.957 136.955 232.557 146.472C231.264 155.275 236.527 161.374 245.435 161.4Z" fill="#046EB7"/>
<path d="M336.454 181.387C336.454 184.579 336.454 187.772 336.454 190.964C335.604 190.995 334.759 191.046 333.909 191.046C298.64 191.046 263.372 191.026 228.103 191.102C225.818 191.102 224.897 190.597 225.192 188.21C225.462 186.038 224.311 183.182 225.604 181.8C227.024 180.28 229.931 181.3 232.18 181.3C265.917 181.264 299.658 181.274 333.395 181.279C334.413 181.279 335.431 181.351 336.444 181.387H336.454Z" fill="#046EB7"/>
<path d="M45.8661 108.604C47.4898 100.664 53.4146 95.1914 60.2352 95.2169C63.9916 95.2322 66.4704 97.4864 68.934 99.8477C72.2272 108.671 69.5601 116.759 62.0727 120.487C60.8154 121.115 59.4411 121.492 57.4102 122.247C61.1107 122.247 64.1443 122.109 67.1525 122.288C70.2014 122.466 73.174 123.206 76.0905 124.159C79.058 125.128 81.9288 126.286 84.5959 128.178C72.2323 126.281 60.7747 128.117 51.0477 136.364C41.3156 144.61 37.432 155.402 38.3075 168.295C28.8451 152.439 31.9857 128.097 56.5907 122.497C53.3739 121.875 50.5489 120.844 48.4467 118.401C46.2631 115.867 45.688 112.848 45.7032 109.635C45.7032 109.41 45.5505 109.181 45.4691 108.956L45.4487 109.007C45.8865 109.191 45.7847 108.803 45.8712 108.609L45.8661 108.604Z" fill="#046EB7"/>
<path d="M294.131 130.642C300.661 124.634 308.006 121.768 316.608 122.191C326.091 122.655 331.013 128.51 329.114 137.776C327.175 147.232 324.65 156.56 322.385 165.949C322.222 166.622 322.065 167.198 321.199 167.377C316.598 168.336 312.887 164.597 313.977 160.12C315.697 153.041 317.489 145.977 319.026 138.863C320.69 131.162 315.987 127.347 308.607 128.729C299.496 130.432 293.856 136.389 291.362 145.151C289.463 151.827 287.926 158.61 286.379 165.378C286.017 166.954 285.417 167.555 283.844 167.392C281.35 167.137 277.939 168.468 276.621 166.785C275.669 165.571 277.39 162.251 277.929 159.875C280.652 147.813 284.129 135.925 286.374 123.751C286.659 122.206 287.269 121.615 288.847 121.768C290.278 121.905 291.749 121.941 293.174 121.768C295.505 121.477 295.668 122.584 295.256 124.414C294.798 126.47 294.497 128.561 294.131 130.636V130.642Z" fill="#046EB7"/>
<path d="M150.562 158.437C148.75 158.33 146.933 158.177 145.192 158.906C140.209 158.549 135.196 158.753 130.233 157.922C116.312 155.586 104.742 149.435 96.705 137.486C96.4301 137.078 95.7735 136.716 96.2061 136.058C97.1885 135.864 97.4939 137.175 98.6494 136.905C98.3999 136.4 98.1811 135.971 97.9775 135.543C95.5648 130.499 97.4939 126.195 102.849 124.665C108.157 123.15 115.075 125.644 118.205 130.208C121.677 135.262 119.579 140.617 113.619 142.209C111.196 142.856 108.834 142.311 105.724 142.076C113.258 145.814 120.547 147.37 128.161 147.645C136.473 147.951 144.658 145.314 153.011 146.63C154.716 147.008 156.421 147.385 158.131 147.762C160.956 149.088 163.725 150.476 165.786 152.964C166.774 154.158 166.713 154.663 165.13 155.132C160.513 156.499 155.8 157.391 151.061 158.156C150.801 158.095 150.567 158.085 150.527 158.442H150.567L150.562 158.437Z" fill="#02AEEE"/>
<path d="M400.802 167.56C396.679 167.326 392.653 166.872 388.744 165.587C386.942 164.995 386.224 164.373 387.349 162.409C389.248 159.094 389.115 159.074 392.872 160.191C397.142 161.461 401.474 162.144 405.907 160.997C407.668 160.543 409.246 159.747 410.519 158.447C412.794 156.116 412.809 152.862 410.61 150.44C408.961 148.624 406.798 147.64 404.609 146.707C402.573 145.84 400.614 144.84 398.822 143.534C392.597 139.006 392.429 131.585 398.491 126.771C403.622 122.696 409.704 121.747 416.006 121.87C419.05 121.931 422.083 122.415 425.01 123.374C426.16 123.751 426.847 124.272 425.931 125.516C425.88 125.582 425.855 125.669 425.819 125.746C424.078 129.642 424.084 129.601 420.027 128.617C415.828 127.602 411.628 127.265 407.607 129.331C402.955 131.718 402.67 136.201 407.007 139.092C408.264 139.934 409.679 140.551 411.053 141.204C413.277 142.259 415.517 143.284 417.492 144.774C423.941 149.644 423.987 157.697 417.563 162.67C412.616 166.5 406.747 167.27 400.797 167.566L400.802 167.56Z" fill="#046EB7"/>
<path d="M150.521 158.442C150.562 158.09 150.791 158.095 151.056 158.156C150.878 158.253 150.7 158.345 150.521 158.442Z" fill="#A7CE3E"/>
<path d="M572.25 32.9585H577.042V37.7501C577.042 39.0209 577.546 40.2397 578.445 41.1383C579.344 42.0369 580.562 42.5418 581.833 42.5418C583.104 42.5418 584.323 42.0369 585.221 41.1383C586.12 40.2397 586.625 39.0209 586.625 37.7501V32.9585H591.417C592.687 32.9585 593.906 32.4536 594.805 31.555C595.703 30.6564 596.208 29.4376 596.208 28.1668C596.208 26.896 595.703 25.6772 594.805 24.7786C593.906 23.88 592.687 23.3751 591.417 23.3751H586.625V18.5835C586.625 17.3126 586.12 16.0938 585.221 15.1952C584.323 14.2966 583.104 13.7918 581.833 13.7918C580.562 13.7918 579.344 14.2966 578.445 15.1952C577.546 16.0938 577.042 17.3126 577.042 18.5835V23.3751H572.25C570.979 23.3751 569.76 23.88 568.862 24.7786C567.963 25.6772 567.458 26.896 567.458 28.1668C567.458 29.4376 567.963 30.6564 568.862 31.555C569.76 32.4536 570.979 32.9585 572.25 32.9585ZM519.542 42.5418V90.4585C519.542 91.7293 520.046 92.9481 520.945 93.8467C521.844 94.7453 523.062 95.2501 524.333 95.2501C525.604 95.2501 526.823 94.7453 527.721 93.8467C528.62 92.9481 529.125 91.7293 529.125 90.4585V42.5418C529.125 41.271 528.62 40.0522 527.721 39.1536C526.823 38.255 525.604 37.7501 524.333 37.7501C523.062 37.7501 521.844 38.255 520.945 39.1536C520.046 40.0522 519.542 41.271 519.542 42.5418ZM589.5 52.1251C588.883 52.2509 588.297 52.4969 587.776 52.8491C587.254 53.2013 586.807 53.6529 586.46 54.1779C586.113 54.703 585.872 55.2913 585.753 55.9092C585.633 56.5272 585.636 57.1626 585.762 57.7793C587.633 66.8653 586.524 76.3123 582.6 84.7182C578.676 93.124 572.147 100.04 563.98 104.441C555.814 108.841 546.446 110.491 537.267 109.145C528.089 107.8 519.589 103.53 513.029 96.9705C506.47 90.4109 502.2 81.9111 500.855 72.7326C499.509 63.5541 501.159 54.1864 505.559 46.0199C509.96 37.8534 516.876 31.3235 525.282 27.3996C533.688 23.4756 543.135 22.3668 552.221 24.2376C553.492 24.4918 554.811 24.2307 555.89 23.5118C556.968 22.7929 557.717 21.6751 557.971 20.4043C558.225 19.1335 557.964 17.8137 557.245 16.7354C556.526 15.657 555.408 14.9085 554.137 14.6543C550.631 14.0009 547.066 13.7119 543.5 13.7918C533.075 13.7918 522.885 16.8831 514.217 22.6747C505.549 28.4664 498.793 36.6983 494.804 46.3295C490.814 55.9607 489.771 66.5586 491.804 76.783C493.838 87.0074 498.858 96.3991 506.229 103.771C513.601 111.142 522.993 116.162 533.217 118.196C543.441 120.229 554.039 119.186 563.67 115.196C573.302 111.207 581.534 104.451 587.325 95.7833C593.117 87.1155 596.208 76.9248 596.208 66.5001C596.218 62.9594 595.865 59.427 595.154 55.9585C595.039 55.3331 594.801 54.7369 594.454 54.2045C594.106 53.672 593.656 53.2141 593.13 52.8573C592.604 52.5006 592.012 52.2521 591.389 52.1264C590.765 52.0007 590.123 52.0002 589.5 52.1251ZM538.708 52.1251V56.9168C538.729 60.4629 540.06 63.876 542.446 66.5001C540.06 69.1242 538.729 72.5374 538.708 76.0835V80.8751C538.708 84.6876 540.223 88.3439 542.919 91.0398C545.614 93.7356 549.271 95.2501 553.083 95.2501H557.875C561.687 95.2501 565.344 93.7356 568.04 91.0398C570.735 88.3439 572.25 84.6876 572.25 80.8751V76.0835C572.229 72.5374 570.898 69.1242 568.512 66.5001C570.898 63.876 572.229 60.4629 572.25 56.9168V52.1251C572.25 48.3126 570.735 44.6563 568.04 41.9605C565.344 39.2646 561.687 37.7501 557.875 37.7501H553.083C549.271 37.7501 545.614 39.2646 542.919 41.9605C540.223 44.6563 538.708 48.3126 538.708 52.1251ZM562.667 80.8751C562.667 82.146 562.162 83.3647 561.263 84.2633C560.364 85.1619 559.146 85.6668 557.875 85.6668H553.083C551.812 85.6668 550.594 85.1619 549.695 84.2633C548.796 83.3647 548.292 82.146 548.292 80.8751V76.0835C548.292 74.8126 548.796 73.5938 549.695 72.6952C550.594 71.7966 551.812 71.2918 553.083 71.2918H557.875C559.146 71.2918 560.364 71.7966 561.263 72.6952C562.162 73.5938 562.667 74.8126 562.667 76.0835V80.8751ZM562.667 52.1251V56.9168C562.667 58.1876 562.162 59.4064 561.263 60.305C560.364 61.2036 559.146 61.7085 557.875 61.7085H553.083C551.812 61.7085 550.594 61.2036 549.695 60.305C548.796 59.4064 548.292 58.1876 548.292 56.9168V52.1251C548.292 50.8543 548.796 49.6355 549.695 48.7369C550.594 47.8383 551.812 47.3335 553.083 47.3335H557.875C559.146 47.3335 560.364 47.8383 561.263 48.7369C562.162 49.6355 562.667 50.8543 562.667 52.1251Z" fill="#ED4044"/>
</svg>
