<svg width="95" height="95" viewBox="0 0 95 95" fill="none" xmlns="http://www.w3.org/2000/svg">
<g clip-path="url(#clip0_19_19)">
<path d="M37.5032 23.3909C37.185 22.3041 36.6672 21.279 36.4839 20.1504C36.3661 19.4284 36.2939 18.7093 36.7261 18.0433C37.3835 17.0325 38.3544 16.9527 39.123 17.8723C39.7338 18.6029 40.1765 19.4408 40.6126 20.2815C41.6709 22.324 42.6541 24.4112 44.0687 26.2466C44.708 27.0759 45.4433 27.8074 46.3278 28.3803C47.8734 29.3835 49.4466 29.3122 50.9552 28.3698C53.1792 26.9809 54.4123 24.7475 55.6948 22.572C56.4472 21.2961 57.1397 19.9813 57.9415 18.7378C58.3861 18.049 58.8649 17.1893 59.9422 17.5313C60.8561 17.822 61.238 18.7834 61.0936 20.064C60.9597 21.2477 60.3887 22.2803 60.0173 23.3823C59.6154 23.6901 59.2525 24.035 58.9685 24.4596C57.3316 26.9173 56.4339 29.7492 54.9956 32.3076C54.0342 34.0176 53.2162 35.7979 52.3717 37.5677C51.4483 39.501 50.3966 41.3772 50.5657 43.6287C49.1293 44.1997 47.7148 44.3745 46.361 43.4017C46.419 41.7088 45.7967 40.204 45.1013 38.7068C43.2336 34.6807 41.2614 30.7021 39.5999 26.58C39.1201 25.3897 38.6166 24.1803 37.5032 23.3909Z" fill="#FD9003"/>
<path d="M50.5647 43.6287C50.3956 41.3772 51.4472 39.501 52.3706 37.5677C53.2152 35.7988 54.0341 34.0176 54.9945 32.3076C56.4328 29.7492 57.3306 26.9173 58.9674 24.4596C59.2505 24.034 59.6134 23.6901 60.0162 23.3823C60.2005 23.3956 60.3848 23.4146 60.5701 23.4213C61.5524 23.4536 61.902 23.7823 61.8165 24.757C61.6749 26.3786 60.952 27.8416 60.4627 29.3673C60.0181 30.7534 59.6153 32.1489 59.5507 33.6062C59.4168 36.6025 60.7933 38.0589 63.7972 38.1064C66.0953 38.1425 68.2736 37.449 70.4748 36.9122C71.1806 36.7403 71.8836 36.5674 72.6151 36.5522C73.1044 36.5427 73.586 36.5645 73.8197 37.0937C74.0544 37.6247 73.9983 38.1444 73.6497 38.6127C73.3029 39.0782 72.8327 39.386 72.3149 39.6425C70.755 40.413 69.0678 40.849 67.4642 41.5064C64.1478 42.8659 60.8209 44.1987 57.5025 45.5515C56.3226 46.0322 55.1218 46.3514 53.8298 46.3049C52.0201 46.2393 50.9808 45.4109 50.5656 43.6306L50.5647 43.6287Z" fill="#96CC02"/>
<path d="M37.5032 23.3909C38.6166 24.1804 39.1201 25.3897 39.5998 26.5801C41.2604 30.7021 43.2326 34.6807 45.1013 38.7068C45.7967 40.205 46.4189 41.7088 46.361 43.4017C45.8603 46.4664 43.3447 46.9367 40.7579 46.1111C38.3525 45.3426 36.1314 44.1228 33.8162 43.13C31.2968 42.0499 28.8145 40.8861 26.2542 39.9C25.4733 39.5998 24.7342 39.179 24.0056 38.7629C23.5306 38.4921 23.1981 38.0637 23.067 37.5079C22.8732 36.6805 23.3273 36.0668 24.1671 36.0297C24.6763 36.0069 25.1722 36.0839 25.6624 36.2169C27.665 36.7574 29.6476 37.4053 31.6797 37.7996C33.2557 38.1055 34.9049 38.0171 36.3005 37.0519C37.2562 36.3907 37.4595 35.2868 37.5336 34.2019C37.6742 32.1471 37.0814 30.2138 36.4924 28.2815C36.1979 27.3173 35.8844 26.3549 35.6697 25.3717C35.2897 23.6294 35.7447 23.1658 37.5032 23.3919V23.3909Z" fill="#03B3D7"/>
<path d="M37.5032 23.3909C37.185 22.3041 36.6672 21.279 36.4839 20.1504C36.3661 19.4284 36.2939 18.7093 36.7261 18.0433C37.3835 17.0325 38.3544 16.9527 39.123 17.8723C39.7338 18.6029 40.1765 19.4408 40.6126 20.2815C41.6709 22.324 42.6541 24.4112 44.0687 26.2466C44.708 27.0759 45.4433 27.8074 46.3278 28.3803C47.8734 29.3835 49.4466 29.3122 50.9552 28.3698C53.1792 26.9809 54.4123 24.7475 55.6948 22.572C56.4472 21.2961 57.1397 19.9813 57.9415 18.7378C58.3861 18.049 58.8649 17.1893 59.9422 17.5313C60.8561 17.822 61.238 18.7834 61.0936 20.064C60.9597 21.2477 60.3887 22.2803 60.0173 23.3823C59.6154 23.6901 59.2525 24.035 58.9685 24.4596C57.3316 26.9173 56.4339 29.7492 54.9956 32.3076C54.0342 34.0176 53.2162 35.7979 52.3717 37.5677C51.4483 39.501 50.3966 41.3772 50.5657 43.6287C49.1293 44.1997 47.7148 44.3745 46.361 43.4017C46.419 41.7088 45.7967 40.204 45.1013 38.7068C43.2336 34.6807 41.2614 30.7021 39.5999 26.58C39.1201 25.3897 38.6166 24.1803 37.5032 23.3909Z" fill="#FD9003"/>
<path d="M50.5647 43.6287C50.3956 41.3772 51.4472 39.501 52.3706 37.5677C53.2152 35.7988 54.0341 34.0176 54.9945 32.3076C56.4328 29.7492 57.3306 26.9173 58.9674 24.4596C59.2505 24.034 59.6134 23.6901 60.0162 23.3823C60.2005 23.3956 60.3848 23.4146 60.5701 23.4213C61.5524 23.4536 61.902 23.7823 61.8165 24.757C61.6749 26.3786 60.952 27.8416 60.4627 29.3673C60.0181 30.7534 59.6153 32.1489 59.5507 33.6062C59.4168 36.6025 60.7933 38.0589 63.7972 38.1064C66.0953 38.1425 68.2736 37.449 70.4748 36.9122C71.1806 36.7403 71.8836 36.5674 72.6151 36.5522C73.1044 36.5427 73.586 36.5645 73.8197 37.0937C74.0544 37.6247 73.9983 38.1444 73.6497 38.6127C73.3029 39.0782 72.8327 39.386 72.3149 39.6425C70.755 40.413 69.0678 40.849 67.4642 41.5064C64.1478 42.8659 60.8209 44.1987 57.5025 45.5515C56.3226 46.0322 55.1218 46.3514 53.8298 46.3049C52.0201 46.2393 50.9808 45.4109 50.5656 43.6306L50.5647 43.6287Z" fill="#96CC02"/>
<path d="M37.5032 23.3909C38.6166 24.1804 39.1201 25.3897 39.5998 26.5801C41.2604 30.7021 43.2326 34.6807 45.1013 38.7068C45.7967 40.205 46.4189 41.7088 46.361 43.4017C45.8603 46.4664 43.3447 46.9367 40.7579 46.1111C38.3525 45.3426 36.1314 44.1228 33.8162 43.13C31.2968 42.0499 28.8145 40.8861 26.2542 39.9C25.4733 39.5998 24.7342 39.179 24.0056 38.7629C23.5306 38.4921 23.1981 38.0637 23.067 37.5079C22.8732 36.6805 23.3273 36.0668 24.1671 36.0297C24.6763 36.0069 25.1722 36.0839 25.6624 36.2169C27.665 36.7574 29.6476 37.4053 31.6797 37.7996C33.2557 38.1055 34.9049 38.0171 36.3005 37.0519C37.2562 36.3907 37.4595 35.2868 37.5336 34.2019C37.6742 32.1471 37.0814 30.2138 36.4924 28.2815C36.1979 27.3173 35.8844 26.3549 35.6697 25.3717C35.2897 23.6294 35.7447 23.1658 37.5032 23.3919V23.3909Z" fill="#03B3D7"/>
<path d="M70.1101 72.826C64.8936 72.96 61.144 69.2835 61.1183 63.6547C61.0927 58.0906 64.5032 54.3571 70.0398 54.2602C75.3598 54.1671 79.0733 58.0982 79.0353 63.6785C78.9954 69.4507 74.9399 73.0047 70.1101 72.826ZM75.4814 63.3431C75.5545 62.1851 75.3417 60.8579 74.6539 59.641C73.4712 57.5491 71.6101 56.8223 69.3035 57.0627C67.281 57.2736 65.9662 58.4297 65.2128 60.2604C64.4272 62.1699 64.4329 64.1525 64.9326 66.1095C65.8883 69.8506 70.2564 71.4438 73.2622 69.1419C75.0767 67.753 75.5175 65.7362 75.4814 63.3431Z" fill="#656565"/>
<path d="M23.9067 64.0861C23.9067 61.4964 23.9209 58.9057 23.8962 56.316C23.8905 55.7014 24.0739 55.4762 24.7104 55.3261C26.8982 54.8103 29.1193 54.5842 31.349 54.473C32.8595 54.398 34.3785 54.5376 35.8159 55.0763C38.4939 56.0804 39.8239 58.16 40.1802 60.8789C40.6656 64.5848 40.3008 68.3183 40.3996 72.0385C40.4101 72.4185 40.2818 72.6494 39.861 72.6218C39.8296 72.6199 39.7973 72.6209 39.766 72.6228C37.7913 72.7722 36.8036 71.8694 36.8029 69.9143C36.801 67.7037 36.8172 65.4921 36.7811 63.2814C36.7697 62.5623 36.6832 61.8308 36.5179 61.1306C35.9831 58.8658 34.7804 57.8636 32.4035 57.6555C31.0127 57.5339 29.6342 57.7619 28.2529 57.8759C27.6193 57.9282 27.4806 58.312 27.4844 58.9143C27.51 63.1465 27.4815 67.3788 27.5138 71.611C27.5195 72.3634 27.3628 72.7263 26.5334 72.6351C25.9406 72.5696 25.3307 72.581 24.7351 72.6332C24.0425 72.694 23.8896 72.3967 23.8972 71.7583C23.9276 69.1999 23.9095 66.6416 23.9095 64.0832H23.9057L23.9067 64.0861Z" fill="#656565"/>
<path d="M50.4079 64.1507C50.4079 61.6256 50.426 59.1014 50.3956 56.5763C50.388 55.9626 50.6008 55.6918 51.1841 55.5151C54.3941 54.5452 57.6393 54.1889 60.9605 54.8245C61.6398 54.9546 61.8497 55.0667 61.4574 55.8828C60.724 57.4094 59.792 58.0393 58.0659 57.6754C56.9715 57.4446 55.8182 57.6859 54.6972 57.9348C54.0208 58.0849 53.8593 58.3832 53.8631 59.0264C53.8887 63.1921 53.8564 67.3578 53.8935 71.5236C53.9011 72.3568 53.7187 72.6721 52.8076 72.6484C50.4079 72.5876 50.407 72.6341 50.4079 70.2097C50.4079 68.19 50.4079 66.1704 50.4079 64.1507Z" fill="#656565"/>
<path d="M17.6415 65.9785C17.6415 64.0243 17.652 62.0701 17.6349 60.116C17.6301 59.5811 17.6624 59.2582 18.3388 59.5413C19.0922 59.8557 19.8807 59.85 20.6302 59.489C21.1356 59.2458 21.2354 59.4842 21.2354 59.926C21.2325 63.9606 21.2297 67.9944 21.2382 72.029C21.2392 72.4803 21.0558 72.6664 20.6179 72.6246C20.5865 72.6218 20.5552 72.6246 20.5238 72.6246C18.6029 72.7133 17.6425 71.7902 17.6425 69.8554V65.9785H17.6415Z" fill="#656565"/>
<path d="M47.2017 66.025C47.2017 67.9202 47.176 69.8155 47.215 71.7098C47.2292 72.39 47.0649 72.7054 46.3248 72.637C45.6988 72.579 45.0594 72.5828 44.4324 72.637C43.7332 72.6968 43.5955 72.3871 43.5993 71.7573C43.6221 67.9041 43.623 64.0518 43.5993 60.1986C43.5945 59.5222 43.7085 59.2733 44.4239 59.5764C45.0813 59.8547 45.7947 59.8519 46.4493 59.5431C47.0525 59.2591 47.2188 59.4263 47.2112 60.0561C47.1884 62.0454 47.2026 64.0357 47.2026 66.025H47.2017Z" fill="#656565"/>
<path d="M48.6229 19.5291C50.7082 19.5158 52.0534 20.9266 52.1579 23.0166C52.25 24.8634 50.3728 26.5772 48.7217 26.5259C46.6517 26.4603 45.2495 25.1493 45.2352 23.1116C45.22 20.9456 46.5462 19.5434 48.6239 19.5301L48.6229 19.5291Z" fill="#FD9003"/>
<path d="M30.0732 33.0961C30.1064 31.3567 31.4146 30.0248 33.0419 30.0751C34.6702 30.1255 35.9423 31.4042 35.9195 32.9688C35.8967 34.561 34.485 36.0098 32.9982 35.968C31.4013 35.9233 30.0447 34.5914 30.0732 33.0961Z" fill="#03B3D7"/>
<path d="M64.1915 30.3325C65.7847 30.3259 67.0567 31.6445 67.0814 33.3269C67.1033 34.8051 65.6944 36.1456 64.1174 36.1475C62.5357 36.1494 61.2722 34.8251 61.2446 33.1379C61.219 31.6046 62.548 30.3401 64.1915 30.3335V30.3325Z" fill="#96CC02"/>
<path d="M45.3853 53.8327C46.8122 53.8374 47.766 54.7903 47.7593 56.2039C47.7527 57.4626 46.6393 58.5694 45.3929 58.557C44.0629 58.5428 43.0473 57.4788 43.054 56.106C43.0606 54.7276 43.9831 53.8289 45.3853 53.8327Z" fill="#656565"/>
<path d="M19.4246 53.8318C20.8211 53.8384 21.7588 54.7485 21.7759 56.1165C21.793 57.4674 20.7717 58.5172 19.4075 58.5523C18.1307 58.5846 17.0734 57.4646 17.0867 56.0947C17.1 54.7143 18.0177 53.8261 19.4246 53.8327V53.8318Z" fill="#656565"/>
<path d="M63.2606 77.7641C62.6545 77.6786 62.1984 77.4687 62.1709 76.7932C62.1576 76.474 63.2283 75.3511 63.2948 75.4756C63.5579 75.9658 64.3056 76.0912 64.2752 76.7685C64.2457 77.4174 63.8211 77.6805 63.2606 77.7641ZM63.6871 76.7172C63.67 76.4759 63.5284 76.2726 63.2282 76.2764C62.8682 76.2812 62.7437 76.531 62.7713 76.855C62.796 77.1495 62.9689 77.3214 63.271 77.2948C63.5798 77.2673 63.6871 77.0526 63.6871 76.7163V76.7172Z" fill="#656565"/>
<path d="M37.8262 76.9063C37.792 77.1182 37.7882 77.3253 37.7217 77.5086C37.6561 77.692 37.4272 77.7319 37.3901 77.5476C37.2818 77.007 37.0662 76.2983 37.4813 75.9544C37.9107 75.5982 38.0371 76.3468 38.3278 76.57C38.3515 76.5881 38.3819 76.5976 38.4218 76.6166C38.6736 76.4408 38.3477 75.943 38.7876 75.8955C39.0336 75.8689 39.0859 76.1007 39.0697 76.2879C39.0298 76.742 39.3148 77.3633 38.9035 77.6131C38.3268 77.9637 38.2803 77.0954 37.8262 76.9063Z" fill="#656565"/>
<path d="M42.6892 76.8664C42.675 76.2803 42.5914 75.7635 43.3618 75.8366C43.9898 75.8965 44.5446 76.0979 44.5199 76.8075C44.4961 77.502 43.9404 77.7005 43.3096 77.7338C42.5049 77.7765 42.7168 77.1951 42.6892 76.8664ZM43.5955 77.2816C43.8055 77.2113 43.9793 77.0688 43.9651 76.7657C43.9499 76.4551 43.739 76.3002 43.4806 76.3078C43.1547 76.3173 43.2564 76.6213 43.2516 76.8151C43.2469 77.0165 43.1956 77.2806 43.5965 77.2816H43.5955Z" fill="#656565"/>
<path d="M69.0099 76.7258C69.2787 76.4474 69.0194 76.0741 69.4089 75.8926C69.7993 76.3714 69.6093 76.9367 69.5723 77.4468C69.5466 77.7945 69.2274 77.7784 69.0127 77.5741C68.8132 77.3841 68.6698 77.1352 68.495 76.9034C68.1093 77.044 68.494 77.5409 68.0504 77.6663C67.6704 77.196 67.8499 76.627 67.8936 76.113C67.9231 75.7653 68.2451 75.7967 68.456 76.0028C68.6536 76.1966 68.798 76.4436 69.0099 76.7258Z" fill="#656565"/>
<path d="M49.4931 77.7774C48.9621 77.3053 48.4291 77.2217 47.8544 77.8031C47.747 77.0393 48.1042 76.5415 48.3797 76.0475C48.5792 75.6884 48.8794 75.8375 49.0286 76.1396C49.2604 76.6089 49.4447 77.101 49.6489 77.5827C49.5976 77.6473 49.5454 77.7119 49.4941 77.7765L49.4931 77.7774Z" fill="#656565"/>
<path d="M33.6186 76.6422C33.63 77.0982 33.6423 77.5238 33.1483 77.6919C32.8044 77.8088 32.4406 77.8107 32.1983 77.5076C31.8525 77.0744 32.0074 76.5548 32.0511 76.0655C32.0558 76.0114 32.185 75.9268 32.2515 75.9316C32.3161 75.9363 32.3969 76.0266 32.4292 76.0978C32.4653 76.1786 32.4482 76.2821 32.4681 76.3724C32.5394 76.6963 32.2724 77.2654 32.8472 77.2454C33.3155 77.2293 33.097 76.7039 33.1531 76.3933C33.1873 76.1995 33.1046 75.8451 33.4295 75.9401C33.7668 76.0389 33.5701 76.4256 33.6195 76.6422H33.6186Z" fill="#656565"/>
<path d="M54.5927 76.0779C54.3885 76.3534 54.1852 76.2536 54.0075 76.2783C53.6874 76.323 53.4717 76.4892 53.5059 76.836C53.5392 77.1789 53.7719 77.3195 54.0997 77.2796C54.2783 77.2578 54.5177 77.1314 54.5471 77.4003C54.5775 77.6805 54.283 77.7223 54.0797 77.7404C53.6047 77.7831 53.2219 77.6178 53.0024 77.159C52.8134 76.7628 52.9027 76.399 53.2 76.1292C53.6066 75.7606 54.0693 75.6808 54.5927 76.0779Z" fill="#656565"/>
<path d="M27.7951 76.4892C27.949 76.646 28.2939 76.4987 28.3414 76.76C28.3898 77.0241 28.1143 76.9899 27.9462 77.0231C27.6422 77.0839 27.759 77.3803 27.6412 77.5418C27.5025 77.7328 27.2764 77.7622 27.2185 77.5333C27.0893 77.025 26.9667 76.4256 27.2736 76.0047C27.5367 75.6437 28.0345 75.8214 28.4269 75.9487C28.3518 76.4113 27.8436 76.1225 27.7951 76.4892Z" fill="#656565"/>
<path d="M58.1589 76.7562C58.2995 76.4874 57.9395 75.9392 58.4696 75.9421C58.8287 75.944 58.7337 76.4494 58.727 76.7477C58.7194 77.0716 58.861 77.6236 58.4449 77.6236C57.9651 77.6236 58.2777 77.0631 58.1589 76.7572V76.7562Z" fill="#656565"/>
</g>
<defs>
<clipPath id="clip0_19_19">
<rect width="95" height="95" fill="white"/>
</clipPath>
</defs>
</svg>
