<svg width="69" height="38" viewBox="0 0 69 38" fill="none" xmlns="http://www.w3.org/2000/svg">
<path d="M19.835 7.99948C19.4113 6.58814 18.7222 5.257 18.4781 3.79138C18.3213 2.85378 18.2252 1.91988 18.8006 1.05506C19.6756 -0.257578 20.968 -0.361206 21.991 0.833001C22.8041 1.78171 23.3934 2.86982 23.9738 3.96163C25.3825 6.61405 26.6913 9.32446 28.5741 11.7079C29.4252 12.7849 30.4039 13.7349 31.5812 14.4788C33.6386 15.7816 35.7326 15.689 37.7407 14.4652C40.701 12.6616 42.3424 9.76118 44.0495 6.93604C45.051 5.2792 45.9728 3.57178 47.0401 1.95689C47.6319 1.06247 48.2692 -0.05402 49.7032 0.390107C50.9197 0.767615 51.428 2.0161 51.2358 3.67911C51.0575 5.21628 50.2975 6.5573 49.8031 7.98838C49.2682 8.38809 48.7851 8.83592 48.407 9.38738C46.2283 12.5789 45.0333 16.2565 43.1188 19.5788C41.8391 21.7995 40.7503 24.1114 39.6261 26.4098C38.397 28.9203 36.9972 31.3568 37.2223 34.2807C35.3103 35.0221 33.4274 35.2491 31.6255 33.9858C31.7026 31.7874 30.8743 29.8332 29.9487 27.889C27.4626 22.6606 24.8374 17.4939 22.6258 12.141C21.9872 10.5952 21.317 9.02467 19.835 7.99948Z" fill="white"/>
<path d="M38.0056 34.5039C37.7816 31.5674 39.1747 29.1204 40.398 26.5991C41.5168 24.2921 42.6016 21.9689 43.8739 19.7387C45.7792 16.4021 46.9685 12.7087 49.1369 9.50338C49.5119 8.94831 49.9927 8.49979 50.5262 8.09836C50.7704 8.1157 51.0145 8.14048 51.2599 8.14916C52.5612 8.19128 53.0243 8.61998 52.9111 9.89119C52.7236 12.0062 51.7659 13.9142 51.1177 15.904C50.5288 17.7117 49.9952 19.5318 49.9096 21.4324C49.7321 25.3402 51.5557 27.2396 55.535 27.3016C58.5793 27.3487 61.465 26.4442 64.3809 25.7442C65.316 25.5199 66.2472 25.2944 67.2163 25.2746C67.8644 25.2622 68.5024 25.2907 68.812 25.9808C69.1229 26.6734 69.0486 27.3511 68.5868 27.962C68.1274 28.5691 67.5045 28.9705 66.8186 29.305C64.7522 30.3099 62.5171 30.8786 60.3928 31.736C55.9994 33.509 51.5922 35.2473 47.1963 37.0116C45.6333 37.6385 44.0425 38.0548 42.331 37.9941C39.9336 37.9086 38.5568 36.8282 38.0069 34.5064L38.0056 34.5039Z" fill="white"/>
<path d="M19.2426 8.16594C20.7222 9.1864 21.3912 10.7496 22.0288 12.2883C24.2355 17.6165 26.8562 22.7593 29.3394 27.9635C30.2635 29.9 31.0904 31.8439 31.0134 34.0322C30.3481 37.9937 27.0052 38.6015 23.5676 37.5344C20.3712 36.541 17.4197 34.9642 14.3432 33.681C10.9953 32.2848 7.69659 30.7805 4.29439 29.5059C3.25669 29.1178 2.27453 28.5738 1.30626 28.036C0.675055 27.686 0.23321 27.1322 0.0589968 26.4138C-0.198535 25.3442 0.404898 24.5509 1.52087 24.503C2.19752 24.4736 2.8565 24.573 3.50791 24.745C6.16908 25.4437 8.80373 26.2812 11.504 26.7908C13.5984 27.1862 15.7899 27.072 17.6444 25.8244C18.9144 24.9697 19.1846 23.5428 19.283 22.1404C19.4699 19.4843 18.6821 16.9853 17.8994 14.4876C17.5081 13.2412 17.0915 11.9973 16.8062 10.7263C16.3012 8.47417 16.9059 7.87491 19.2426 8.16717V8.16594Z" fill="white"/>
<path d="M34.7202 3.11488C37.3885 3.0983 39.1097 4.85647 39.2435 7.46116C39.3614 9.76276 36.9594 11.8986 34.8467 11.8347C32.1979 11.753 30.4037 10.1191 30.3854 7.57955C30.366 4.88015 32.0629 3.13264 34.7214 3.11606L34.7202 3.11488Z" fill="white"/>
<path d="M9.49593 21.2752C9.53913 19.0695 11.2386 17.3805 13.3529 17.4444C15.4683 17.5082 17.1209 19.1297 17.0913 21.1138C17.0617 23.1328 15.2276 24.9699 13.2961 24.9169C11.2214 24.8603 9.45891 23.1714 9.49593 21.2752Z" fill="white"/>
<path d="M56.3766 17.4427C58.4498 17.4334 60.1051 19.2698 60.1373 21.6129C60.1657 23.6715 58.3323 25.5383 56.2802 25.541C54.2218 25.5436 52.5776 23.6993 52.5417 21.3496C52.5084 19.2142 54.2379 17.4532 56.3766 17.444V17.4427Z" fill="white"/>
</svg>
